<?xml version="1.0" standalone="no"?><!DOCTYPE svg PUBLIC "-//W3C//DTD SVG 1.1//EN" "http://www.w3.org/Graphics/SVG/1.1/DTD/svg11.dtd"><svg t="1575985649491" class="icon" viewBox="0 0 1024 1024" version="1.1" xmlns="http://www.w3.org/2000/svg" p-id="1041" width="64" height="64" xmlns:xlink="http://www.w3.org/1999/xlink"><defs><style type="text/css"></style></defs><path d="M640 234.666667c153.173333 0 277.333333 124.16 277.333333 277.333333S793.173333 789.333333 640 789.333333a21.333333 21.333333 0 0 1 0-42.666666c129.607111 0 234.666667-105.059556 234.666667-234.666667 0-126.435556-99.996444-229.532444-225.223111-234.481778L640 277.333333H384c-129.607111 0-234.666667 105.059556-234.666667 234.666667 0 126.435556 99.996444 229.532444 225.223111 234.481778L384 746.666667h42.666667v-43.392a8.533333 8.533333 0 0 1 1.137777-4.266667l1.365334-1.777778a8.533333 8.533333 0 0 1 9.856-1.592889l2.204444 1.592889 64.739556 64.739556a8.533333 8.533333 0 0 1 1.592889 9.856l-1.592889 2.204444-64.739556 64.739556a8.533333 8.533333 0 0 1-14.264889-3.768889l-0.298666-2.275556V789.333333h-42.666667C230.826667 789.333333 106.666667 665.173333 106.666667 512c0-149.831111 118.826667-271.928889 267.377777-277.162667l9.955556-0.170666h256z" p-id="1042" fill="#ffffff"></path><path d="M554.666667 640V384h-36.124445L469.333333 427.150222v40.618667l49.208889-43.861333V640z" p-id="1043" fill="#ffffff"></path></svg>