<?xml version="1.0" standalone="no"?><!DOCTYPE svg PUBLIC "-//W3C//DTD SVG 1.1//EN" "http://www.w3.org/Graphics/SVG/1.1/DTD/svg11.dtd"><svg t="1575986343015" class="icon" viewBox="0 0 1024 1024" version="1.1" xmlns="http://www.w3.org/2000/svg" p-id="30971" width="64" height="64" xmlns:xlink="http://www.w3.org/1999/xlink"><defs><style type="text/css"></style></defs><path d="M834.4 286.9c0 14.1-11.4 25.6-25.6 25.6H215.1c-14.1 0-25.6-11.4-25.6-25.6 0-14.1 11.4-25.6 25.6-25.6h593.7c14.2 0 25.6 11.4 25.6 25.6zM834.4 512c0 14.1-11.4 25.6-25.6 25.6H215.1c-14.1 0-25.6-11.4-25.6-25.6 0-14.1 11.4-25.6 25.6-25.6h593.7c14.2 0 25.6 11.5 25.6 25.6zM834.4 737.1c0 14.1-11.4 25.6-25.6 25.6H215.1c-14.1 0-25.6-11.4-25.6-25.6 0-14.1 11.4-25.6 25.6-25.6h593.7c14.2 0.1 25.6 11.5 25.6 25.6z" fill="#ffffff" p-id="30972"></path></svg>