<?xml version="1.0" standalone="no"?><!DOCTYPE svg PUBLIC "-//W3C//DTD SVG 1.1//EN" "http://www.w3.org/Graphics/SVG/1.1/DTD/svg11.dtd"><svg t="1575985744237" class="icon" viewBox="0 0 1024 1024" version="1.1" xmlns="http://www.w3.org/2000/svg" p-id="1943" width="64" height="64" xmlns:xlink="http://www.w3.org/1999/xlink"><defs><style type="text/css"></style></defs><path d="M544.284444 292.209778a187.960889 187.960889 0 0 1 270.705778 0c79.601778 81.777778 68.622222 224.355556-32.853333 320.554666a21.333333 21.333333 0 1 1-29.354667-30.976c84.963556-80.526222 93.838222-195.911111 31.644445-259.811555-55.879111-57.400889-144.981333-59.448889-203.235556-6.158222l-6.343111 6.158222-22.101333 22.670222a64 64 0 0 1-85.703111 3.242667l-4.792889-4.465778-20.892445-21.447111c-57.927111-59.52-151.623111-59.52-209.564444 0-60.714667 62.364444-53.191111 167.992889 29.240889 252.416l7.936 7.850667 194.318222 195.683555a64 64 0 0 0 90.382222 0.440889l72.149333-71.224889a21.333333 21.333333 0 0 1 29.966223 30.364445l-72.135111 71.224888a106.666667 106.666667 0 0 1-145.095112 4.465778l-5.546666-5.205333-193.891556-195.271111C133.432889 511.985778 121.031111 374.599111 201.244444 292.209778a187.904 187.904 0 0 1 263.566223-6.968889l7.139555 6.968889 20.892445 21.461333a21.333333 21.333333 0 0 0 27.164444 2.830222l3.413333-2.844444 20.878223-21.447111z" p-id="1944" fill="#ffffff"></path></svg>